# This file uses centimeters as units for non-parametric coordinates.

mtllib box.mtl
g default
v -5.847323 2.508874 3.995519
v 5.847323 2.508874 3.995519
v -5.847323 3.586905 3.995519
v 5.847323 3.586905 3.995519
v -5.847323 3.586905 -3.995519
v 5.847323 3.586905 -3.995519
v -5.847323 2.508874 -3.995519
v 5.847323 2.508874 -3.995519
v -5.847323 0.007964 3.995519
v 5.847323 0.007964 3.995519
v -5.847323 2.477910 3.995519
v 5.847323 2.477910 3.995519
v -5.847323 2.477910 -3.995519
v 5.847323 2.477910 -3.995519
v -5.847323 0.007964 -3.995519
v 5.847323 0.007964 -3.995519
vt 0.998507 0.669257
vt 0.614322 0.669257
vt 0.614322 0.620922
vt 0.998507 0.620922
vt 0.998506 0.724765
vt 0.614322 0.724765
vt 0.614322 0.676429
vt 0.998506 0.676429
vt 0.017674 0.012121
vt 0.584932 0.012121
vt 0.584932 0.380394
vt 0.017674 0.380394
vt 0.009590 0.605976
vt 0.009590 0.387320
vt 0.346391 0.387320
vt 0.346391 0.605976
vt 0.611309 0.729126
vt 0.009590 0.729126
vt 0.009590 0.674723
vt 0.611309 0.674723
vt 0.611309 0.667552
vt 0.009590 0.667552
vt 0.009590 0.613148
vt 0.611309 0.613148
vt 0.598431 0.862714
vt 0.004211 0.862714
vt 0.004211 0.741552
vt 0.598431 0.741552
vt 0.590872 0.548708
vt 0.590872 0.288496
vt 0.990295 0.288496
vt 0.990295 0.548708
vt 0.598431 0.992982
vt 0.004211 0.992982
vt 0.004211 0.871820
vt 0.598431 0.871820
vt 0.997501 0.272836
vt 0.592336 0.272836
vt 0.592336 0.008884
vt 0.997501 0.008884
vt 0.994324 0.866407
vt 0.604292 0.866407
vt 0.604292 0.745245
vt 0.994324 0.745245
vt 0.994323 0.996675
vt 0.604292 0.996675
vt 0.604292 0.875513
vt 0.994323 0.875513
vn 0.000000 0.000000 1.000000
vn 0.000000 0.000000 1.000000
vn 0.000000 0.000000 1.000000
vn 0.000000 0.000000 1.000000
vn 0.000000 1.000000 0.000000
vn 0.000000 1.000000 0.000000
vn 0.000000 1.000000 0.000000
vn 0.000000 1.000000 0.000000
vn 0.000000 0.000000 -1.000000
vn 0.000000 0.000000 -1.000000
vn 0.000000 0.000000 -1.000000
vn 0.000000 0.000000 -1.000000
vn 0.000000 -1.000000 0.000000
vn 0.000000 -1.000000 0.000000
vn 0.000000 -1.000000 0.000000
vn 0.000000 -1.000000 0.000000
vn 1.000000 0.000000 0.000000
vn 1.000000 0.000000 0.000000
vn 1.000000 0.000000 0.000000
vn 1.000000 0.000000 0.000000
vn -1.000000 0.000000 0.000000
vn -1.000000 0.000000 0.000000
vn -1.000000 0.000000 0.000000
vn -1.000000 0.000000 0.000000
vn 0.000000 0.000000 1.000000
vn 0.000000 0.000000 1.000000
vn 0.000000 0.000000 1.000000
vn 0.000000 0.000000 1.000000
vn 0.000000 1.000000 0.000000
vn 0.000000 1.000000 0.000000
vn 0.000000 1.000000 0.000000
vn 0.000000 1.000000 0.000000
vn 0.000000 0.000000 -1.000000
vn 0.000000 0.000000 -1.000000
vn 0.000000 0.000000 -1.000000
vn 0.000000 0.000000 -1.000000
vn 0.000000 -1.000000 0.000000
vn 0.000000 -1.000000 0.000000
vn 0.000000 -1.000000 0.000000
vn 0.000000 -1.000000 0.000000
vn 1.000000 0.000000 0.000000
vn 1.000000 0.000000 0.000000
vn 1.000000 0.000000 0.000000
vn 1.000000 0.000000 0.000000
vn -1.000000 0.000000 0.000000
vn -1.000000 0.000000 0.000000
vn -1.000000 0.000000 0.000000
vn -1.000000 0.000000 0.000000
s off
g box
usemtl box1
f 1/17/1 2/18/2 4/19/3 3/20/4
f 3/9/5 4/10/6 6/11/7 5/12/8
f 5/21/9 6/22/10 8/23/11 7/24/12
f 7/13/13 8/14/14 2/15/15 1/16/16
f 2/1/17 8/2/18 6/3/19 4/4/20
f 7/5/21 1/6/22 3/7/23 5/8/24
f 9/25/25 10/26/26 12/27/27 11/28/28
f 11/29/29 12/30/30 14/31/31 13/32/32
f 13/33/33 14/34/34 16/35/35 15/36/36
f 15/37/37 16/38/38 10/39/39 9/40/40
f 10/41/41 16/42/42 14/43/43 12/44/44
f 15/45/45 9/46/46 11/47/47 13/48/48
